<svg width="94" height="28" viewBox="0 0 94 28" fill="none" xmlns="http://www.w3.org/2000/svg">
<rect y="11.75" width="16" height="16" rx="2" fill="#1E1E1E"/>
<rect x="5" y="15.75" width="6" height="9" fill="white"/>
<path d="M4.56852 5.18276C6.23159 2.79209 9.76841 2.79209 11.4315 5.18276C13.3595 7.95433 11.3762 11.75 8 11.75C4.62376 11.75 2.64046 7.95433 4.56852 5.18276Z" fill="#1E1E1E"/>
<path d="M85.0554 5.45605C86.8314 5.45605 88.3834 5.81606 89.7114 6.53606C91.0554 7.24006 92.0874 8.23205 92.8074 9.51206C93.5274 10.7921 93.8874 12.2561 93.8874 13.9041C93.8874 15.5361 93.5194 16.9921 92.7834 18.2721C92.0634 19.5521 91.0314 20.5601 89.6874 21.2961C88.3594 22.0161 86.8154 22.3761 85.0554 22.3761H78.3594V5.45605H85.0554ZM84.6954 18.2241C86.0714 18.2241 87.1514 17.8481 87.9354 17.0961C88.7194 16.3441 89.1114 15.2801 89.1114 13.9041C89.1114 12.5121 88.7194 11.4401 87.9354 10.6881C87.1514 9.92005 86.0714 9.53606 84.6954 9.53606H83.0634V18.2241H84.6954Z" fill="#1E1E1E"/>
<path d="M71.2743 18.7761H76.5303V22.3761H66.5703V5.45605H71.2743V18.7761Z" fill="#1E1E1E"/>
<path d="M63.8915 5.45605V22.3761H59.1875V5.45605H63.8915Z" fill="#1E1E1E"/>
<path d="M46.7095 5.45605V15.2721C46.7095 16.1841 46.9175 16.8881 47.3335 17.3841C47.7655 17.8801 48.4135 18.1281 49.2775 18.1281C50.1415 18.1281 50.7895 17.8801 51.2215 17.3841C51.6695 16.8721 51.8935 16.1681 51.8935 15.2721V5.45605H56.5975V15.2721C56.5975 16.8241 56.2695 18.1521 55.6135 19.2561C54.9575 20.3441 54.0615 21.1681 52.9255 21.7281C51.8055 22.2721 50.5575 22.5441 49.1815 22.5441C47.8055 22.5441 46.5735 22.2721 45.4855 21.7281C44.4135 21.1681 43.5655 20.3441 42.9415 19.2561C42.3335 18.1681 42.0295 16.8401 42.0295 15.2721V5.45605H46.7095Z" fill="#1E1E1E"/>
<path d="M36.8 13.6881C37.792 13.9121 38.576 14.4081 39.152 15.1761C39.744 15.9281 40.04 16.7921 40.04 17.7681C40.04 19.2081 39.544 20.3361 38.552 21.1521C37.56 21.9681 36.168 22.3761 34.376 22.3761H26V5.45605H34.112C35.84 5.45605 37.192 5.84006 38.168 6.60806C39.16 7.37606 39.656 8.45606 39.656 9.84806C39.656 10.8401 39.392 11.6721 38.864 12.3441C38.352 13.0001 37.664 13.4481 36.8 13.6881ZM30.704 12.1761H33.08C34.264 12.1761 34.856 11.6881 34.856 10.7121C34.856 9.70406 34.264 9.20006 33.08 9.20006H30.704V12.1761ZM33.44 18.5841C34.624 18.5841 35.216 18.0881 35.216 17.0961C35.216 16.5841 35.056 16.1921 34.736 15.9201C34.432 15.6481 33.992 15.5121 33.416 15.5121H30.704V18.5841H33.44Z" fill="#1E1E1E"/>
</svg>
